<?xml version="1.0" standalone="no"?>
<!DOCTYPE svg PUBLIC "-//W3C//DTD SVG 20010904//EN"
 "http://www.w3.org/TR/2001/REC-SVG-20010904/DTD/svg10.dtd">
<svg version="1.0" xmlns="http://www.w3.org/2000/svg"
 width="700.000000pt" height="700.000000pt" viewBox="0 0 700.000000 700.000000"
 preserveAspectRatio="xMidYMid meet">
<metadata>
Created by potrace 1.11, written by Peter Selinger 2001-2013
</metadata>
<g transform="translate(0.000000,700.000000) scale(0.100000,-0.100000)"
fill="#000000" stroke="none">
<path d="M3165 6419 c-301 -20 -623 -118 -976 -295 -317 -158 -564 -335 -799
-573 -353 -356 -572 -747 -700 -1247 -61 -235 -81 -391 -87 -671 -9 -411 35
-723 154 -1087 207 -634 581 -1141 1065 -1445 53 -34 100 -61 105 -61 8 0 687
1270 681 1274 -2 1 -136 -3 -298 -10 -162 -7 -296 -12 -297 -11 -1 1 121 112
270 247 396 357 587 535 579 538 -4 1 -169 -2 -367 -6 -198 -5 -361 -8 -363
-6 -4 3 488 382 935 719 204 154 369 281 368 283 -3 3 -717 -25 -808 -32 -38
-2 -46 -1 -35 9 7 6 326 207 708 446 l694 434 -371 45 c-205 25 -374 48 -377
50 -2 3 241 122 540 264 299 143 544 262 544 266 0 3 -63 24 -140 45 -77 21
-140 41 -139 44 0 3 149 107 330 231 182 124 332 227 334 231 5 7 -205 99
-325 142 -282 102 -602 163 -895 173 -88 2 -176 6 -195 7 -19 2 -80 0 -135 -4z"/>
<path d="M4630 5649 c-111 -221 -200 -402 -198 -404 2 -1 111 17 243 41 132
24 243 43 247 42 4 -2 -106 -106 -244 -233 -365 -333 -572 -529 -562 -532 5
-1 149 -14 319 -28 171 -14 369 -32 440 -40 72 -8 137 -15 145 -15 12 0 12 -2
0 -14 -8 -8 -145 -105 -305 -216 -374 -260 -884 -624 -885 -630 0 -3 227 -5
505 -5 368 0 501 -3 492 -11 -7 -6 -269 -169 -583 -362 -314 -193 -607 -373
-650 -401 -78 -50 -78 -51 -44 -51 19 0 188 -7 375 -15 187 -8 372 -15 410
-15 57 -1 67 -3 54 -13 -9 -7 -291 -163 -627 -347 -336 -184 -607 -338 -604
-342 4 -3 97 -34 207 -68 109 -33 201 -62 202 -64 2 -1 -34 -15 -80 -31 -45
-15 -206 -74 -357 -131 -151 -56 -317 -117 -368 -135 -75 -26 -91 -34 -80 -44
7 -7 65 -41 128 -75 63 -35 126 -70 140 -78 l25 -16 -50 -20 c-98 -39 -222
-109 -403 -228 -164 -107 -386 -228 -419 -228 -41 0 17 -44 133 -103 453 -227
1275 -300 1890 -166 107 23 366 109 494 164 500 214 942 574 1228 1002 250
373 430 832 497 1268 22 143 31 476 16 632 -45 488 -222 972 -512 1403 -43 63
-107 152 -143 196 -82 102 -314 349 -386 410 -94 80 -280 198 -447 283 l-43
21 -200 -401z"/>
</g>
</svg>
