<?xml version="1.0" encoding="utf-8"?>
<!-- Generator: Adobe Illustrator 19.0.0, SVG Export Plug-In . SVG Version: 6.00 Build 0)  -->
<svg version="1.1" id="Layer_1" xmlns="http://www.w3.org/2000/svg" xmlns:xlink="http://www.w3.org/1999/xlink" x="0px" y="0px"
	 width="567px" height="125px" viewBox="-162 188 567 125" style="enable-background:new -162 188 567 125;" xml:space="preserve">
<g>
	<path d="M321.2,247.2L289,221c-1.3-1-3.1-1.3-4.6-0.6s-2.4,2.2-2.4,3.9v52.5c0,1.7,1,3.2,2.4,3.9c0.6,0.3,1.2,0.4,1.8,0.4
		c1,0,1.9-0.3,2.7-1l32.2-26.2c1-0.8,1.6-2,1.6-3.3S322.2,248,321.2,247.2z"/>
	<path d="M340.7,220h-13.3c-2.4,0-4.3,1.9-4.3,4.3v52.5c0,2.4,1.9,4.3,4.3,4.3h13.3c2.4,0,4.3-1.9,4.3-4.3v-52.5
		C345,221.9,343.1,220,340.7,220z"/>
</g>
<g>
	<path d="M-82.7,250.5c0,1.3,0.6,2.5,1.6,3.3l32.2,26.2c0.8,0.7,1.7,1,2.7,1c0.6,0,1.2-0.1,1.8-0.4c1.4-0.7,2.4-2.2,2.4-3.9v-52.5
		c0-1.7-0.9-3.2-2.4-3.9s-3.3-0.4-4.6,0.6l-32.2,26.2C-82.2,247.9-82.7,249.2-82.7,250.5z"/>
	<path d="M-105,224.2v52.5c0,2.4,1.9,4.3,4.3,4.3h13.3c2.4,0,4.3-1.9,4.3-4.3l0-52.5c0-2.4-1.9-4.3-4.3-4.3h-13.3
		C-103.1,219.9-105,221.8-105,224.2z"/>
</g>
<g>
	<path d="M54.6,220H41.3c-2.4,0-4.3,1.9-4.3,4.3v52.3c0,2.4,1.9,4.3,4.3,4.3h13.3c2.4,0,4.3-1.9,4.3-4.3v-52.3
		C58.9,222,57,220,54.6,220z"/>
	<path d="M84.8,220H71.5c-2.4,0-4.3,1.9-4.3,4.3v52.3c0,2.4,1.9,4.3,4.3,4.3h13.3c2.4,0,4.3-1.9,4.3-4.3v-52.3
		C89.1,222,87.2,220,84.8,220z"/>
</g>
<path d="M206.5,247.1l-33.2-26.2c-1.3-1-3-1.2-4.5-0.5s-2.4,2.2-2.4,3.9v52.5c0,1.6,0.9,3.1,2.4,3.9c0.6,0.3,1.2,0.4,1.9,0.4
	c0.9,0,1.9-0.3,2.7-0.9l33.2-26.2c1-0.8,1.6-2.1,1.6-3.4S207.6,247.9,206.5,247.1z"/>
</svg>
