<?xml version="1.0" encoding="utf-8"?>
<!-- Generator: Adobe Illustrator 19.0.0, SVG Export Plug-In . SVG Version: 6.00 Build 0)  -->
<svg version="1.1" id="Layer_1" xmlns="http://www.w3.org/2000/svg" xmlns:xlink="http://www.w3.org/1999/xlink" x="0px" y="0px"
	 width="295px" height="70px" viewBox="-157 151 295 70" style="enable-background:new -157 151 295 70;" xml:space="preserve">
<style type="text/css">
	.st0{fill:#E6F2F6;}
</style>
<g>
	<path class="st0" d="M27.7,175.4c0,0-0.1,0-0.2,0s-0.1,0-0.2,0s-0.2,0.1-0.2,0.2V199c0,0.1,0.1,0.1,0.2,0.2c0,0,0.1,0,0.2,0
		s0.1,0,0.2,0l19.2-11.7c0.1,0,0.2-0.1,0.2-0.2s-0.1-0.1-0.2-0.2L27.7,175.4z"/>
	<path class="st0" d="M55.3,175.4h-7.8c-0.3,0-0.5,0.2-0.5,0.4v11.6V199c0,0.2,0.2,0.4,0.5,0.4h7.7c0.3,0,0.5-0.2,0.5-0.4v-23.1
		C55.8,175.6,55.6,175.4,55.3,175.4z"/>
</g>
<path class="st0" d="M-46.6,186.6l-26.7-13.2h-0.1h-0.1c-0.1,0-0.1,0.1-0.1,0.2V200c0,0.1,0.1,0.2,0.1,0.2h0.1h0.1l26.7-13.2
	c0.1,0,0.1-0.1,0.1-0.2C-46.4,186.8-46.5,186.6-46.6,186.6z"/>
<g>
	<path class="st0" d="M-0.9,171.8h-7.7c-0.3,0-0.5,0.2-0.5,0.4v27.7c0,0.2,0.2,0.4,0.5,0.4h7.7c0.3,0,0.5-0.2,0.5-0.4v-27.7
		C-0.4,171.9-0.6,171.8-0.9,171.8z"/>
	<path class="st0" d="M-13.3,171.8H-21c-0.3,0-0.5,0.2-0.5,0.4v27.7c0,0.2,0.2,0.4,0.5,0.4h7.7c0.3,0,0.5-0.2,0.5-0.4v-27.7
		C-12.7,171.9-13,171.8-13.3,171.8z"/>
</g>
<g>
	<path class="st0" d="M-106.6,199.3c0,0,0.1,0,0.2,0s0.1,0,0.2,0s0.2-0.1,0.2-0.2v-23.4c0-0.1-0.1-0.1-0.2-0.2c0,0-0.1,0-0.2,0
		s-0.1,0-0.2,0l-19.2,11.7c-0.1,0-0.2,0.1-0.2,0.2c0,0.1,0.1,0.1,0.2,0.2L-106.6,199.3z"/>
	<path class="st0" d="M-134.2,199.3h7.7c0.3,0,0.5-0.2,0.5-0.4v-11.6v-11.6c0-0.2-0.2-0.4-0.5-0.4h-7.7c-0.3,0-0.5,0.2-0.5,0.4v23.1
		C-134.7,199.1-134.4,199.3-134.2,199.3z"/>
</g>
<g>
	<g>
		<rect x="92.5" y="196.3" class="st0" width="20" height="6.2"/>
		<rect x="111.4" y="191.7" class="st0" width="6.2" height="10.8"/>
		<rect x="87.1" y="191.7" class="st0" width="6.2" height="10.8"/>
	</g>
	<g>
		<rect x="99.3" y="172.2" class="st0" width="6.2" height="12.6"/>
		<polygon class="st0" points="102.3,192.8 95.7,183.2 109,183.2 		"/>
	</g>
</g>
</svg>
